<svg id="dump" xmlns="http://www.w3.org/2000/svg" viewBox="0 0 473.86 797.78"><title>Full Lockup (Silhouette)</title><path d="M270.74,236.64a33.38,33.38,0,0,1-2,11.57l0,.06a32.76,32.76,0,0,1-2.75,5.75,33.86,33.86,0,1,1,4.8-17.38Z"/><path d="M406,236.64c0,81.78-58.33,150.18-135.57,165.8l58-121.77a101.08,101.08,0,0,0,10-44c0-1.84,0-3.68-.15-5.48A101.58,101.58,0,1,0,226.11,337.65L196,400.8c-73.61-18.32-128.31-85-128.31-164.16,0-93.27,75.88-169.16,169.15-169.16S406,143.37,406,236.64Z"/><path d="M236.87,405.79a168.78,168.78,0,0,1-40.84-5L145,508h75.18l50.27-105.55A169.46,169.46,0,0,1,236.87,405.79Z"/><path d="M150.29,682.95H133.23V621c0-17.64-5-26.55-21.71-26.55-9.69,0-26.75,6.2-26.75,33.72V683H67.72V575.85H83.81v20.5h.39c3.68-5.43,13.18-17.25,30.62-17.25,15.7,0,35.47,6.39,35.47,35.27Z"/><path d="M192.94,683H175.88V575.86h17.06Z"/><path d="M301.07,683H284l0-65.31c0-17.64-5-26.55-21.71-26.55-9.69,0-26.75,6.2-26.75,33.72V683H218.52V575.84H234.6v17.25H235c3.68-5.43,13.18-17.25,30.62-17.25,15.7,0,35.47,6.39,35.47,35.27Z"/><path d="M404.78,648.32c-.58,4.84-5.23,19.19-18,27.71-4.65,3.1-11.24,7-27.52,7-28.49,0-45.35-21.51-45.35-50.78,0-31.4,15.12-56.4,48.65-56.4,29.27,0,43.61,23.26,43.61,59.11h-74c0,21.13,9.88,33.34,29.46,33.34,16.09,0,25.58-12.4,26.16-20ZM388.5,621.38c-1-15.7-7.56-30.24-28.3-30.24-15.7,0-28.1,14.54-28.1,30.24Z"/><path d="M420,561.28a14.13,14.13,0,0,1-.86,4.9v0a13.86,13.86,0,0,1-1.16,2.43,14.33,14.33,0,1,1,2-7.35Z"/><path d="M246.23,712a1.75,1.75,0,0,1-.11.61h0a1.72,1.72,0,0,1-.14.3,1.78,1.78,0,1,1,.25-.91Z"/><path d="M406.13,712a1.75,1.75,0,0,1-.11.61h0a1.72,1.72,0,0,1-.14.3,1.78,1.78,0,1,1,.25-.91Z"/><path d="M68.6,717.37c.13-4.2,2.92-5.84,7.25-5.84,1.41,0,6.51.4,6.51,4.9v10.11c0,.74.37,1,1,1a5.62,5.62,0,0,0,1-.13v2.15a5.46,5.46,0,0,1-1.61.34c-2.62,0-3-1.34-3.12-2.69a8,8,0,0,1-6.35,2.85c-3.22,0-5.51-2-5.51-5.07,0-1.48.44-4.9,5.34-5.51l4.87-.6c.71-.07,1.54-.34,1.54-2.08S78.13,714,75.35,714c-3.36,0-3.83,2-4,3.39Zm10.81,3.26c-.47.37-1.21.64-4.87,1.11-1.44.2-3.76.64-3.76,2.85,0,1.91,1,3.06,3.19,3.06,2.75,0,5.44-1.78,5.44-4.13Z"/><path d="M87.13,729.59V705.48h3v8.76h.07a6,6,0,0,1,5.07-2.72c4.67,0,7.32,3.83,7.32,8.76,0,4.2-1.75,9.8-7.72,9.8A5.25,5.25,0,0,1,90,727.41h-.07v2.18Zm7.55-15.41c-4.26,0-4.73,4.6-4.73,7.45,0,4.67,2.92,5.91,4.8,5.91,3.22,0,4.73-2.92,4.73-6.78C99.49,718.51,99.25,714.18,94.68,714.18Z"/><path d="M113.18,711.52c5.61,0,8.16,4.73,8.16,9.27s-2.55,9.27-8.16,9.27-8.16-4.73-8.16-9.27S107.57,711.52,113.18,711.52Zm0,16c4.23,0,5.1-4.36,5.1-6.72s-.87-6.72-5.1-6.72-5.1,4.37-5.1,6.72S109,727.51,113.18,727.51Z"/><path d="M136.14,729.59V727l-.07-.07a5.79,5.79,0,0,1-5.57,3.12c-2.59,0-5.71-1.24-5.71-5.44V712h3v11.65c0,2.89,1.48,3.86,3.39,3.86,3.73,0,4.84-3.29,4.84-5.84V712h3v17.56Z"/><path d="M147,714.48v11.42c0,1.38,1.17,1.38,1.78,1.38h1v2.32c-1.07.1-1.91.24-2.22.24-2.92,0-3.56-1.65-3.56-3.76V714.48h-2.38V712H144v-4.9h3V712h2.82v2.45Z"/><path d="M173,712h3.26c-2,5.74-4.06,11.48-6.31,17.23-2.79,7.12-3.09,7.52-6.88,7.52a4.37,4.37,0,0,1-1.24-.27v-2.69a5.19,5.19,0,0,0,1.78.3c1.54,0,1.71-.44,3.12-4.06l-6.51-18h3.36l4.67,14.3h.07Z"/><path d="M185.29,711.52c5.61,0,8.16,4.73,8.16,9.27s-2.55,9.27-8.16,9.27-8.16-4.73-8.16-9.27S179.69,711.52,185.29,711.52Zm0,16c4.23,0,5.1-4.36,5.1-6.72s-.87-6.72-5.1-6.72-5.1,4.37-5.1,6.72S181.06,727.51,185.29,727.51Z"/><path d="M208.26,729.59V727l-.07-.07a5.79,5.79,0,0,1-5.57,3.12c-2.59,0-5.71-1.24-5.71-5.44V712h3v11.65c0,2.89,1.48,3.86,3.39,3.86,3.73,0,4.84-3.29,4.84-5.84V712h3v17.56Z"/><path d="M219.1,714.48v11.42c0,1.38,1.17,1.38,1.78,1.38h1v2.32c-1.07.1-1.91.24-2.22.24-2.92,0-3.56-1.65-3.56-3.76V714.48h-2.38V712h2.38v-4.9h3V712h2.82v2.45Z"/><path d="M239.11,729.59h-3V718.1c0-2.38-.67-3.93-3.49-3.93-2.42,0-4.9,1.41-4.9,5.84v9.57h-3V705.48h3v8.9h.07a6.2,6.2,0,0,1,5.14-2.85c2.72,0,6.14,1.11,6.14,6.11Z"/><path d="M256.57,717.37c.13-4.2,2.92-5.84,7.25-5.84,1.41,0,6.51.4,6.51,4.9v10.11c0,.74.37,1,1,1a5.62,5.62,0,0,0,1-.13v2.15a5.46,5.46,0,0,1-1.61.34c-2.62,0-3-1.34-3.12-2.69a8,8,0,0,1-6.35,2.85c-3.22,0-5.51-2-5.51-5.07,0-1.48.44-4.9,5.34-5.51l4.87-.6c.71-.07,1.54-.34,1.54-2.08s-1.34-2.85-4.13-2.85c-3.36,0-3.83,2-4,3.39Zm10.81,3.26c-.47.37-1.21.64-4.87,1.11-1.44.2-3.76.64-3.76,2.85,0,1.91,1,3.06,3.19,3.06,2.75,0,5.44-1.78,5.44-4.13Z"/><path d="M275.1,729.59V705.48h3v8.76h.07a6,6,0,0,1,5.07-2.72c4.67,0,7.32,3.83,7.32,8.76,0,4.2-1.75,9.8-7.72,9.8a5.25,5.25,0,0,1-4.84-2.69h-.07v2.18Zm7.55-15.41c-4.26,0-4.73,4.6-4.73,7.45,0,4.67,2.92,5.91,4.8,5.91,3.22,0,4.73-2.92,4.73-6.78C287.46,718.51,287.22,714.18,282.66,714.18Z"/><path d="M301.16,711.52c5.61,0,8.16,4.73,8.16,9.27s-2.55,9.27-8.16,9.27-8.16-4.73-8.16-9.27S295.55,711.52,301.16,711.52Zm0,16c4.23,0,5.1-4.36,5.1-6.72s-.87-6.72-5.1-6.72-5.1,4.37-5.1,6.72S296.92,727.51,301.16,727.51Z"/><path d="M324.12,729.59V727l-.07-.07a5.79,5.79,0,0,1-5.57,3.12c-2.59,0-5.71-1.24-5.71-5.44V712h3v11.65c0,2.89,1.48,3.86,3.39,3.86,3.73,0,4.84-3.29,4.84-5.84V712h3v17.56Z"/><path d="M335,714.48v11.42c0,1.38,1.17,1.38,1.78,1.38h1v2.32c-1.07.1-1.91.24-2.22.24-2.92,0-3.56-1.65-3.56-3.76V714.48h-2.38V712H332v-4.9h3V712h2.82v2.45Z"/><path d="M361,712h3.26c-2,5.74-4.06,11.48-6.31,17.23-2.79,7.12-3.09,7.52-6.88,7.52a4.37,4.37,0,0,1-1.24-.27v-2.69a5.19,5.19,0,0,0,1.78.3c1.54,0,1.71-.44,3.12-4.06l-6.51-18h3.36l4.67,14.3h.07Z"/><path d="M373.27,711.52c5.61,0,8.16,4.73,8.16,9.27s-2.55,9.27-8.16,9.27-8.16-4.73-8.16-9.27S367.66,711.52,373.27,711.52Zm0,16c4.23,0,5.1-4.36,5.1-6.72s-.87-6.72-5.1-6.72-5.1,4.37-5.1,6.72S369,727.51,373.27,727.51Z"/><path d="M396.23,729.59V727l-.07-.07a5.79,5.79,0,0,1-5.57,3.12c-2.59,0-5.71-1.24-5.71-5.44V712h3v11.65c0,2.89,1.48,3.86,3.39,3.86,3.73,0,4.84-3.29,4.84-5.84V712h3v17.56Z"/></svg>