<svg xmlns="http://www.w3.org/2000/svg" viewBox="0 0 262.16 113.36"><defs><style>.cls-1{fill:#f9f9f9;}</style></defs><title>wordmark (white)</title><g id="logo"><path class="cls-1" d="M66.68,103.44H54.94V60.79c0-12.14-3.47-18.27-14.94-18.27-6.67,0-18.4,4.27-18.4,23.21v37.73H9.86V29.75H20.93v14.1h.27C23.73,40.12,30.27,32,42.27,32c10.8,0,24.41,4.4,24.41,24.27Z"/><path class="cls-1" d="M96,103.5H84.29V29.75H96Z"/><path class="cls-1" d="M170.43,103.49H158.69V58.55c0-12.14-3.47-18.27-14.94-18.27-6.67,0-18.4,4.27-18.4,23.21v40H113.62V29.74h11.07V41.61H125C127.49,37.87,134,29.74,146,29.74c10.8,0,24.41,4.4,24.41,24.27Z"/><path class="cls-1" d="M241.79,79.62a30.14,30.14,0,0,1-12.4,19.07c-3.2,2.13-7.74,4.8-18.94,4.8-19.6,0-31.21-14.8-31.21-34.94,0-21.61,10.4-38.81,33.47-38.81,20.14,0,30,16,30,40.68H191.78c0,14.54,6.8,22.94,20.27,22.94,11.07,0,17.6-8.54,18-13.74Zm-11.2-18.54c-.67-10.8-5.2-20.81-19.47-20.81-10.8,0-19.34,10-19.34,20.81Z"/><path class="cls-1" d="M252.3,19.73a9.72,9.72,0,0,1-.59,3.37v0a9.54,9.54,0,0,1-.8,1.67,9.86,9.86,0,1,1,1.4-5.06Z"/></g></svg>